<mxfile host="app.diagrams.net" modified="2024-03-02T10:55:16.518Z" agent="Mozilla/5.0 (Windows NT 10.0; Win64; x64) AppleWebKit/537.36 (KHTML, like Gecko) Chrome/122.0.0.0 Safari/537.36 Edg/122.0.0.0" etag="pdkodIly3jd-2j48nQfz" version="24.0.0" type="device">
  <diagram name="Страница — 1" id="zhSPEE8QUuminEkkHsBI">
    <mxGraphModel dx="2790" dy="2452" grid="1" gridSize="10" guides="1" tooltips="1" connect="1" arrows="1" fold="1" page="1" pageScale="1" pageWidth="827" pageHeight="1169" math="0" shadow="0">
      <root>
        <mxCell id="0" />
        <mxCell id="1" parent="0" />
        <mxCell id="-fM8ci7U5-hMbF4uqANQ-24" value="Аудиоплеер" style="rounded=0;whiteSpace=wrap;html=1;fillColor=none;horizontal=1;verticalAlign=top;fontSize=30;" parent="1" vertex="1">
          <mxGeometry x="210" y="-170" width="990" height="940" as="geometry" />
        </mxCell>
        <mxCell id="-fM8ci7U5-hMbF4uqANQ-1" value="Пользователь" style="shape=umlActor;verticalLabelPosition=bottom;verticalAlign=top;html=1;outlineConnect=0;fontSize=30;" parent="1" vertex="1">
          <mxGeometry x="40" y="170" width="70" height="140" as="geometry" />
        </mxCell>
        <mxCell id="-fM8ci7U5-hMbF4uqANQ-14" value="extend" style="edgeStyle=orthogonalEdgeStyle;rounded=0;orthogonalLoop=1;jettySize=auto;html=1;startArrow=block;startFill=1;endArrow=none;endFill=0;curved=1;fontSize=30;" parent="1" source="-fM8ci7U5-hMbF4uqANQ-2" target="-fM8ci7U5-hMbF4uqANQ-13" edge="1">
          <mxGeometry relative="1" as="geometry">
            <Array as="points">
              <mxPoint x="400" y="240" />
              <mxPoint x="400" y="240" />
            </Array>
          </mxGeometry>
        </mxCell>
        <mxCell id="-fM8ci7U5-hMbF4uqANQ-2" value="прослушать&amp;nbsp; композицию" style="ellipse;whiteSpace=wrap;html=1;fontSize=30;" parent="1" vertex="1">
          <mxGeometry x="248.75" y="167.5" width="217.5" height="145" as="geometry" />
        </mxCell>
        <mxCell id="-fM8ci7U5-hMbF4uqANQ-3" value="" style="edgeStyle=orthogonalEdgeStyle;rounded=0;orthogonalLoop=1;jettySize=auto;html=1;endArrow=none;endFill=0;fontSize=30;curved=0;" parent="1" source="-fM8ci7U5-hMbF4uqANQ-1" target="-fM8ci7U5-hMbF4uqANQ-2" edge="1">
          <mxGeometry relative="1" as="geometry" />
        </mxCell>
        <mxCell id="-fM8ci7U5-hMbF4uqANQ-7" value="include" style="edgeStyle=orthogonalEdgeStyle;rounded=0;orthogonalLoop=1;jettySize=auto;html=1;startArrow=none;startFill=0;endArrow=block;endFill=1;curved=1;fontSize=30;" parent="1" source="-fM8ci7U5-hMbF4uqANQ-4" target="-fM8ci7U5-hMbF4uqANQ-6" edge="1">
          <mxGeometry relative="1" as="geometry" />
        </mxCell>
        <mxCell id="-fM8ci7U5-hMbF4uqANQ-22" style="rounded=0;orthogonalLoop=1;jettySize=auto;html=1;exitX=0;exitY=0.5;exitDx=0;exitDy=0;endArrow=none;endFill=0;fontSize=30;" parent="1" source="-fM8ci7U5-hMbF4uqANQ-4" target="-fM8ci7U5-hMbF4uqANQ-1" edge="1">
          <mxGeometry relative="1" as="geometry" />
        </mxCell>
        <mxCell id="-fM8ci7U5-hMbF4uqANQ-4" value="работа с плагинами" style="ellipse;whiteSpace=wrap;html=1;fontSize=30;" parent="1" vertex="1">
          <mxGeometry x="530" y="-10" width="195" height="130" as="geometry" />
        </mxCell>
        <mxCell id="-fM8ci7U5-hMbF4uqANQ-21" style="rounded=0;orthogonalLoop=1;jettySize=auto;html=1;exitX=0;exitY=0.5;exitDx=0;exitDy=0;endArrow=none;endFill=0;fontSize=30;" parent="1" source="-fM8ci7U5-hMbF4uqANQ-5" target="-fM8ci7U5-hMbF4uqANQ-1" edge="1">
          <mxGeometry relative="1" as="geometry" />
        </mxCell>
        <mxCell id="-fM8ci7U5-hMbF4uqANQ-5" value="работа с плейлистами" style="ellipse;whiteSpace=wrap;html=1;fontSize=30;" parent="1" vertex="1">
          <mxGeometry x="507.5" y="430" width="225" height="150" as="geometry" />
        </mxCell>
        <mxCell id="-fM8ci7U5-hMbF4uqANQ-6" value="установка плагинов" style="ellipse;whiteSpace=wrap;html=1;fontSize=30;" parent="1" vertex="1">
          <mxGeometry x="940" y="-110" width="190" height="126.67" as="geometry" />
        </mxCell>
        <mxCell id="-fM8ci7U5-hMbF4uqANQ-9" value="include" style="edgeStyle=orthogonalEdgeStyle;rounded=0;orthogonalLoop=1;jettySize=auto;html=1;entryX=1;entryY=0.5;entryDx=0;entryDy=0;curved=1;startArrow=block;startFill=1;endArrow=none;endFill=0;fontSize=30;" parent="1" source="-fM8ci7U5-hMbF4uqANQ-8" target="-fM8ci7U5-hMbF4uqANQ-4" edge="1">
          <mxGeometry relative="1" as="geometry" />
        </mxCell>
        <mxCell id="-fM8ci7U5-hMbF4uqANQ-8" value="удаление плагинов" style="ellipse;whiteSpace=wrap;html=1;fontSize=30;" parent="1" vertex="1">
          <mxGeometry x="940" y="80" width="185" height="123.33" as="geometry" />
        </mxCell>
        <mxCell id="-fM8ci7U5-hMbF4uqANQ-13" value="прослушать плейлист" style="ellipse;whiteSpace=wrap;html=1;fontSize=30;" parent="1" vertex="1">
          <mxGeometry x="660" y="182.5" width="195" height="130" as="geometry" />
        </mxCell>
        <mxCell id="-fM8ci7U5-hMbF4uqANQ-17" value="include" style="edgeStyle=orthogonalEdgeStyle;rounded=0;orthogonalLoop=1;jettySize=auto;html=1;exitX=0;exitY=0.5;exitDx=0;exitDy=0;entryX=1;entryY=0.5;entryDx=0;entryDy=0;curved=1;startArrow=block;startFill=1;endArrow=none;endFill=0;fontSize=30;" parent="1" source="-fM8ci7U5-hMbF4uqANQ-15" target="-fM8ci7U5-hMbF4uqANQ-5" edge="1">
          <mxGeometry relative="1" as="geometry" />
        </mxCell>
        <mxCell id="-fM8ci7U5-hMbF4uqANQ-15" value="создать плейлист" style="ellipse;whiteSpace=wrap;html=1;fontSize=30;" parent="1" vertex="1">
          <mxGeometry x="940" y="270" width="190" height="126.67" as="geometry" />
        </mxCell>
        <mxCell id="-fM8ci7U5-hMbF4uqANQ-18" value="include" style="edgeStyle=orthogonalEdgeStyle;rounded=0;orthogonalLoop=1;jettySize=auto;html=1;exitX=0;exitY=0.5;exitDx=0;exitDy=0;curved=1;entryX=1;entryY=0.5;entryDx=0;entryDy=0;startArrow=block;startFill=1;endArrow=none;endFill=0;fontSize=30;" parent="1" source="-fM8ci7U5-hMbF4uqANQ-16" target="-fM8ci7U5-hMbF4uqANQ-5" edge="1">
          <mxGeometry relative="1" as="geometry">
            <mxPoint x="350" y="390" as="targetPoint" />
          </mxGeometry>
        </mxCell>
        <mxCell id="-fM8ci7U5-hMbF4uqANQ-16" value="удалить плейлист" style="ellipse;whiteSpace=wrap;html=1;fontSize=30;" parent="1" vertex="1">
          <mxGeometry x="941.25" y="442.5" width="187.5" height="125" as="geometry" />
        </mxCell>
        <mxCell id="-fM8ci7U5-hMbF4uqANQ-20" value="include" style="edgeStyle=orthogonalEdgeStyle;rounded=0;orthogonalLoop=1;jettySize=auto;html=1;exitX=0;exitY=0.5;exitDx=0;exitDy=0;entryX=1;entryY=0.5;entryDx=0;entryDy=0;curved=1;startArrow=block;startFill=1;endArrow=none;endFill=0;fontSize=30;" parent="1" source="-fM8ci7U5-hMbF4uqANQ-19" target="-fM8ci7U5-hMbF4uqANQ-5" edge="1">
          <mxGeometry relative="1" as="geometry" />
        </mxCell>
        <mxCell id="-fM8ci7U5-hMbF4uqANQ-19" value="изменить плейлист" style="ellipse;whiteSpace=wrap;html=1;fontSize=30;" parent="1" vertex="1">
          <mxGeometry x="950" y="610" width="180" height="120" as="geometry" />
        </mxCell>
      </root>
    </mxGraphModel>
  </diagram>
</mxfile>
